<svg width="26" height="26" viewBox="0 0 26 26" fill="none" xmlns="http://www.w3.org/2000/svg">
<path d="M6.42008 15.4651L5.59733 18.5365L2.5902 18.6001C1.69151 16.9333 1.18176 15.0262 1.18176 12.9995C1.18176 11.0398 1.65837 9.19171 2.50318 7.56445H2.50383L5.18102 8.05528L6.35379 10.7164C6.10833 11.432 5.97454 12.2002 5.97454 12.9995C5.97464 13.8671 6.13178 14.6982 6.42008 15.4651Z" fill="#FBBB00"/>
<path d="M24.6116 10.792C24.7474 11.5069 24.8181 12.2452 24.8181 12.9998C24.8181 13.8459 24.7292 14.6712 24.5597 15.4673C23.9844 18.1764 22.4811 20.542 20.3987 22.216L20.398 22.2154L17.026 22.0433L16.5487 19.0641C17.9305 18.2537 19.0104 16.9855 19.5793 15.4673H13.2598V10.792H19.6715H24.6116Z" fill="#518EF8"/>
<path d="M20.398 22.2158L20.3986 22.2164C18.3733 23.8444 15.8006 24.8184 12.9999 24.8184C8.4993 24.8184 4.58633 22.3028 2.59021 18.6009L6.42009 15.4658C7.41812 18.1294 9.98761 20.0256 12.9999 20.0256C14.2947 20.0256 15.5078 19.6755 16.5486 19.0645L20.398 22.2158Z" fill="#28B446"/>
<path d="M20.5434 3.90241L16.7149 7.03681C15.6376 6.36345 14.3642 5.97447 12.9999 5.97447C9.91941 5.97447 7.30186 7.95757 6.35382 10.7167L2.50382 7.56475H2.50317C4.47007 3.77255 8.43239 1.18164 12.9999 1.18164C15.8675 1.18164 18.4967 2.20308 20.5434 3.90241Z" fill="#F14336"/>
</svg>
