<svg width="22" height="22" viewBox="0 0 22 22" fill="none" xmlns="http://www.w3.org/2000/svg">
<path d="M3.32761 12.8239C4.10396 9.09586 7.34937 6.44694 11 6.44694C14.6496 6.44694 17.895 9.09586 18.6725 12.8239C18.7033 12.9719 18.7916 13.1015 18.9179 13.1843C19.0443 13.2672 19.1984 13.2964 19.3464 13.2656C19.4943 13.2348 19.6239 13.1465 19.7068 13.0201C19.7896 12.8937 19.8188 12.7396 19.788 12.5917C18.9035 8.35138 15.2039 5.30859 11 5.30859C6.79614 5.30859 3.09652 8.35138 2.21203 12.5917C2.18124 12.7396 2.21047 12.8937 2.2933 13.0201C2.37613 13.1465 2.50577 13.2348 2.65371 13.2656C2.80164 13.2964 2.95575 13.2672 3.08213 13.1843C3.20851 13.1015 3.29681 12.9719 3.32761 12.8239V12.8239ZM10.9886 8.72362C12.0453 8.72362 13.0587 9.14338 13.8059 9.89056C14.5531 10.6377 14.9728 11.6511 14.9728 12.7078C14.9728 13.7645 14.5531 14.7779 13.8059 15.5251C13.0587 16.2723 12.0453 16.692 10.9886 16.692C9.93197 16.692 8.91858 16.2723 8.1714 15.5251C7.42421 14.7779 7.00445 13.7645 7.00445 12.7078C7.00445 11.6511 7.42421 10.6377 8.1714 9.89056C8.91858 9.14338 9.93197 8.72362 10.9886 8.72362V8.72362Z" fill="#6A707C"/>
</svg>
